<svg
xmlns="http://www.w3.org/2000/svg" viewBox="0 0 200 200" xml:space="preserve">
    <style>.st0{display:none}</style>
    <path d="M122.9 96.3c-2.9-6.1-7.1-8.8-13.5-8.7-7.8.1-13.5 5.3-16.8 
    15.1H95c2-4.8 4.7-9.1 6.7-10.8 5.4-4.3 14.4-1.4 18.7 6 .8 1.3 1.3 2.7 1.7 
    4.7h2.6c-.3-2.6-.8-4.3-1.8-6.3z"/>
    <path d="M193 77.1c-4.4-7.7-6.3-8.6-19.7-8.4-6.4.1-18.1.7-26 1.3-7.9.7-14.6 
    1-14.9.8-.3-.3 1.8-4.9 4.6-10.1 2.7-5.3 5-9.9 5-10.2s-10.5-.5-23.3-.5H95.3l-13.1 
    9-13.1 8.9-9.3 1.1c-13 1.6-28.9 5.5-36.3 9-8.4 4-15.9 10.9-18.1 16.6-.9 2.4-1.3 
    4.5-1.3 8.2h4.1c0-5.4.4-7.9 1.4-9.7C14.9 82.5 34.5 74 59.8 71l9.3-1.1 13.6-9.4L96.3 
    51H140l-5.6 10.6c-3.1 5.8-5.3 10.8-5 11.1.4.4 9.7-.1 20.9-1 24.3-2.1 30.7-2.1 
    35.1-.3 3.9 1.6 7.4 6.1 8.3 10.8.6 3.2.6 3.3-1.4 1.5-5.3-4.7-8.2-1.1-12.3 
    15.2l-.9 3.8h1.8c.2-.9.5-1.8.7-2.8 3.5-13.7 6.6-18.1 10.2-14.5 1.3 1.3 1.7 
    3.6 1.7 10.1 0 5.6.3 8.1 1 7.4.6-.6 1-5.6 1-11.2 0-9-.3-10.7-2.5-14.6z"/>
    <path d="M128.6 63l-5.7 7-19.7.2c-19.1.1-19.3.2-7.7.8 6.6.4 15.9.8 20.6.9l8.6.1 
    5.1-8c2.8-4.4 5-8 4.9-8-.2 0-2.9 3.1-6.1 7zM142.5 61.6c-1.5 1.4-3.8 2.9-5 3.4s-2.5 
    1.8-2.8 3c-.5 2-.3 2.1 5.1 1.5 12.3-1.3 12.2-1.3 12.2-4.8 0-6.1-4.7-7.6-9.5-3.1zM155.7 
    62.8c-3.2 3.5-2.2 4.7 3.3 4.4 5.4-.4 6.3-1.7 3.2-4.5-2.4-2.2-4.5-2.1-6.5.1zM98.3 
    76.7c.9.2 2.3.2 3 0 .6-.3-.1-.5-1.8-.5-1.6 0-2.2.2-1.2.5zM84 78.4c-18.7 4.2-33.5 
    13.1-39.1 23.8-.6 1.2.9 0 3.5-2.9 8.7-9.6 21.8-16.4 39-20.3 4.5-1 6.8-1.8 
    5.1-1.8-1.6 0-5.5.6-8.5 1.2z"/>
    <path class="st0" d="M188.8 112.6c-3.1 3.2-10.8 4.5-13.5 2.3-1.6-1.3-1.7-1.2-.4.3 2.8 
    3.7 12.9 1.5 15.9-3.3 1.6-2.6 1.1-2.4-2 .7zM21 112.3c.3.4 6.2 1.4 13 2.3 9.3 1.2 16.8 
    1.5 29.3 1.1 18.3-.6 19.6-.1 9.9 4.1-10.3 4.5-35.7 5.3-52.2 1.8-8.1-1.7-9-1.2-1.8.9 
    22.6 6.5 51 3.7 61.7-6.1 2-1.8 3.3-3.5 2.9-3.9-.3-.4-8.2-.1-17.5.5-15.4 1.1-25.6.9-40.3-.7-3-.3-5.3-.3-5 0z"/>
    <path d="M115.5 133.7c-.2.1-.3.3-.5.4-6.4 5.4-13.7 6-21 1.6-3.1-1.9-3.3-1.9-2-.3 2 2.6 7.2 4.6 11.5 
    4.6 4.8 0 9.4-2.1 12.9-5.9l.3-.3c-.4-.1-.8-.1-1.2-.1z"/>
    <path d="M22.9 127.5L20 116.7l-2.8 10.7-2.1.1-4.8-18.2h1.9l4.1 15.9 2.9-11.3-1.3-4.7h1.9l4.2 15.9 
    3.9-15.9h1.8L25 127.4l-2.1.1zM31.2 127.5v-18.2h7.6v1.7H33v6.4h5.3v1.6H33v6.8h6.2l-.2 1.7h-7.8zM42.1 
    127.5v-18.2h1.8v16.5h6.2l-.2 1.7h-7.8zM58.1 127.7c-4.4 0-7.3-3.6-7.3-9.3 0-5.9 2.9-9.4 7.5-9.4 1.4 
    0 2.7.2 4.2.9l-.2 1.8c-1.6-.7-2.8-.9-4.1-.9-3.6 0-5.5 2.8-5.5 7.5 0 4.2 2 7.7 5.6 7.7 1.1 0 2.8-.3 
    4.6-1.4l-.1 1.8c-1.7.9-3.3 1.3-4.7 1.3zM71.1 127.7c-4.2 0-6.9-4-6.9-9.6 0-5.5 2.9-9.1 7.1-9.1 4.4 0 
    7 3.7 7 9.1 0 5.8-2.7 9.6-7.2 9.6zm0-16.9c-3.1 0-5 3-5 7.1 0 4.7 1.9 8.1 5 8.1h.2c3.4 0 5.2-3.1 
    5.2-7.7-.1-4.6-2-7.5-5.4-7.5zM94.3 112l-5 15.5h-1.8L82.6 112l-.4 15.4h-1.7l.5-18.2h2.5l5 15.6 
    5.1-15.6H96l.6 18.2h-1.8l-.5-15.4zM99.4 127.5v-18.2h7.6v1.7h-5.8v6.4h5.3v1.6h-5.3v6.8h6.2l-.2 
    1.7h-7.8zM113.4 127.5v-18.2h1.8v16.5h6.2l-.2 1.7h-7.8zM123.7 
    127.5v-18.2h7.6v1.7h-5.8v6.4h5.3v1.6h-5.3v6.8h6.2l-.2 1.7h-7.8zM142.5 122.1h-5.7l-1.4 
    5.4h-1.8l5.1-18.1 2-.1 5.5 18.2h-2l-1.7-5.4zm-5.3-1.6h4.8l-2.5-8.9-2.3 8.9zM150.5 
    127.7c-1.1 0-2.4-.2-3.7-.8l-.1-1.9c1.7.7 2.7.8 3.7.8 2.1 0 3.1-1.3 3.1-3.3 
    0-1.3-.4-2.4-2.2-3.4l-1.2-.6c-2.4-1.4-3.1-2.9-3.1-4.8 0-2.6 1.6-4.8 4.8-4.8.9 0 2 .1 
    3.1.6l-.2 1.7c-1.3-.5-2.1-.6-2.9-.6-2.1 0-2.9 1.2-2.9 2.8 0 1.2.4 2.2 2.3 3.3l1.1.6c2.4 1.4 
    3.1 2.9 3.1 4.9.3 3-1.4 5.5-4.9 5.5zM158.2 109.3h1.8v18.2h-1.8v-18.2zM163 109.3h2l8.2 
    14.9v-14.9h1.7v18.2h-2l-8.2-15v15H163v-18.2zM184.8 127.7c-4.7 0-7.6-3.5-7.6-9.4s3-9.3 
    7.7-9.3c1.4 0 3.1.3 4.4 1l-.2 1.8c-1.5-.7-3.1-1-4.3-1-3.7 0-5.7 2.6-5.7 7.4 0 4.5 1.9 
    7.8 5.7 7.8.8 0 1.9-.2 3-.6v-6.3h1.8v5.3c0 1.2.1 2.1.1 2.1-1.7.8-3.4 1.2-4.9 1.2z"/>
</svg>